# xmcd
#
# Track frame offsets:
#	150
#	21625
#	40912
#	60502
#	90462
#	112725
#	131905
#	155750
#	176497
#	196605
#	216300
#
# Disc length: 3214 seconds
#
# Revision: 1
# Processed by: cddbd v1.5.1PL0 Copyright (c) Steve Scherf et al.
# Submitted via: CDex 1.50Beta5
#
DISCID=940c8c0b
DTITLE=織田裕二 - SECRET RENDEZ-VOUS
DYEAR=2000
DGENRE=Pop
TTITLE0=DREAM LOVER
TTITLE1=JUDITH
TTITLE2=SECRET RENDEZ-VOUS
TTITLE3=スワン
TTITLE4=Moon
TTITLE5=光の一粒
TTITLE6=永遠のきずな
TTITLE7=OH!YEAHHH!
TTITLE8=う・ね・り
TTITLE9=SECRET RENDEZ-VOUS(instrumental version)
TTITLE10=For You
EXTD=
EXTT0=
EXTT1=
EXTT2=
EXTT3=
EXTT4=
EXTT5=
EXTT6=
EXTT7=
EXTT8=
EXTT9=
EXTT10=
PLAYORDER=
